<svg width="52" height="52" viewBox="0 0 52 52" fill="none" xmlns="http://www.w3.org/2000/svg">
<g clip-path="url(#clip0_33_2)">
<path d="M50 24H6.83003L27.41 3.41C27.7825 3.03528 27.9916 2.52837 27.9916 2C27.9916 1.47163 27.7825 0.964725 27.41 0.590001C27.0353 0.217499 26.5284 0.00841522 26 0.00841522C25.4717 0.00841522 24.9648 0.217499 24.59 0.590001L0.590029 24.59C0.495425 24.6837 0.411572 24.7877 0.340029 24.9C0.308168 24.9316 0.278119 24.965 0.250029 25C0.250029 25.07 0.180029 25.13 0.150029 25.2L0.0900293 25.4C0.0842804 25.4565 0.0842804 25.5135 0.0900293 25.57C0.0388379 25.8275 0.0388379 26.0925 0.0900293 26.35C0.0842804 26.4065 0.0842804 26.4635 0.0900293 26.52L0.150029 26.72C0.150029 26.79 0.220029 26.85 0.250029 26.92C0.276309 26.9721 0.30639 27.0223 0.340029 27.07C0.411572 27.1823 0.495425 27.2863 0.590029 27.38L24.59 51.38C24.7693 51.5894 24.99 51.7594 25.2381 51.8795C25.4862 51.9995 25.7565 52.067 26.0319 52.0776C26.3074 52.0882 26.582 52.0418 26.8387 51.9413C27.0953 51.8407 27.3284 51.6882 27.5233 51.4933C27.7182 51.2984 27.8708 51.0653 27.9713 50.8086C28.0719 50.552 28.1183 50.2773 28.1076 50.0019C28.097 49.7265 28.0295 49.4562 27.9095 49.2081C27.7894 48.9599 27.6194 48.7393 27.41 48.56L6.83003 28H50C50.5305 28 51.0392 27.7893 51.4142 27.4142C51.7893 27.0391 52 26.5304 52 26C52 25.4696 51.7893 24.9609 51.4142 24.5858C51.0392 24.2107 50.5305 24 50 24Z" fill="white"/>
</g>
<defs>
<clipPath id="clip0_33_2">
<rect width="52" height="52" fill="white"/>
</clipPath>
</defs>
</svg>
