<svg width="297" height="297" viewBox="0 0 297 297" fill="none" xmlns="http://www.w3.org/2000/svg">
<g clip-path="url(#clip0_3_2)">
<path d="M269.415 105.583H237.607V54.592C237.607 37.214 223.47 23.076 206.093 23.076H31.511C14.136 23.076 0 37.214 0 54.592V150.001C0 167.378 14.136 181.516 31.511 181.516H54.444V214.505C54.444 218.516 56.859 222.131 60.565 223.665C61.792 224.173 63.08 224.42 64.357 224.42C66.937 224.42 69.474 223.412 71.37 221.515L98.989 193.89V211.233C98.989 226.446 111.364 238.823 126.576 238.823H203.338L235.529 271.019C237.425 272.917 239.962 273.924 242.543 273.924C243.82 273.924 245.107 273.677 246.334 273.169C250.04 271.635 252.455 268.02 252.455 264.009V238.823H269.416C284.627 238.823 297.001 226.446 297.001 211.233V133.172C297 117.959 284.626 105.583 269.415 105.583ZM64.357 161.686H31.511C25.071 161.686 19.83 156.444 19.83 150.002V54.592C19.83 48.149 25.07 42.906 31.511 42.906H206.094C212.536 42.906 217.778 48.148 217.778 54.592V150.001C217.778 156.443 212.537 161.685 206.094 161.685H107.253C104.624 161.685 102.102 162.73 100.241 164.59L74.272 190.564V171.6C74.272 166.125 69.833 161.686 64.357 161.686ZM277.17 211.232C277.17 215.51 273.692 218.993 269.415 218.993H242.54C237.065 218.993 232.625 223.431 232.625 228.907V240.069L214.455 221.897C212.597 220.037 210.074 218.993 207.444 218.993H126.575C122.298 218.993 118.818 215.511 118.818 211.232V181.515H206.093C223.47 181.515 237.607 167.377 237.607 150V125.412H269.415C273.691 125.412 277.17 128.892 277.17 133.171V211.232Z" fill="white"/>
</g>
<defs>
<clipPath id="clip0_3_2">
<rect width="297" height="297" fill="white"/>
</clipPath>
</defs>
</svg>
