<svg width="250" height="250" viewBox="0 0 250 250" fill="none" xmlns="http://www.w3.org/2000/svg">
<path d="M206.897 85.9008V177.026C206.897 188.763 197.384 198.276 185.651 198.276H94.8276L51.7241 245.69V198.276H21.2457C9.51293 198.276 0 188.763 0 177.03V85.9052C0 74.1681 9.51293 64.6552 21.2457 64.6552H185.647C197.384 64.6552 206.897 74.1681 206.897 85.9008Z" fill="#4E63FF"/>
<path d="M228.754 4.3103H64.3491C52.6164 4.3103 43.1035 13.8232 43.1035 25.5603V64.6551H185.651C197.384 64.6551 206.897 74.1681 206.897 85.9051V137.931H228.754C240.487 137.931 250 128.418 250 116.681V25.5603C250 13.8232 240.487 4.3103 228.754 4.3103Z" fill="#5641E6"/>
<path d="M107.759 112.134H47.4138C45.0302 112.134 43.1035 110.203 43.1035 107.823C43.1035 105.444 45.0302 103.513 47.4138 103.513H107.759C110.142 103.513 112.069 105.444 112.069 107.823C112.069 110.203 110.142 112.134 107.759 112.134Z" fill="white"/>
<path d="M163.793 137.996H47.4138C45.0302 137.996 43.1035 136.065 43.1035 133.685C43.1035 131.306 45.0302 129.375 47.4138 129.375H163.793C166.177 129.375 168.103 131.306 168.103 133.685C168.103 136.065 166.177 137.996 163.793 137.996Z" fill="white"/>
<path d="M163.793 163.858H47.4138C45.0302 163.858 43.1035 161.927 43.1035 159.547C43.1035 157.168 45.0302 155.237 47.4138 155.237H163.793C166.177 155.237 168.103 157.168 168.103 159.547C168.103 161.927 166.177 163.858 163.793 163.858Z" fill="white"/>
</svg>
