<svg width="512" height="512" viewBox="0 0 512 512" fill="none" xmlns="http://www.w3.org/2000/svg">
<g clip-path="url(#clip0_1_2)">
<path d="M0.0449122 256.068C0.67149 268.313 7.66828 278.618 17.798 282.134L205.354 347.966L212.246 498.058C212.559 503.998 216.006 509.212 220.914 511.151C222.271 511.758 223.733 512 225.091 512C228.746 512 232.192 510.303 234.698 507.029L301.011 421.799L394.998 497.33C399.175 500.725 404.083 502.544 409.2 502.544C421.001 502.544 431.235 492.845 433.741 479.266L511.75 17.7155C512.69 12.381 510.915 6.8041 507.364 3.40945C503.709 -0.10643 498.801 -0.955093 494.415 1.10594L15.0828 227.577C5.37083 232.669 -0.581666 243.823 0.0449122 256.068ZM236.056 460.838L231.774 366.152L279.812 404.705L236.056 460.838ZM408.783 472.355L237.727 334.872L477.602 65.483L408.783 472.355ZM451.286 53.6017L214.126 319.96L26.7789 254.249L451.286 53.6017Z" fill="#5E0ECB"/>
</g>
<defs>
<clipPath id="clip0_1_2">
<rect width="512" height="512" fill="white"/>
</clipPath>
</defs>
</svg>
