<svg width="300" height="300" viewBox="0 0 300 300" fill="none" xmlns="http://www.w3.org/2000/svg">
<g clip-path="url(#clip0_1_20)">
<path d="M284.71 1.32306L11.7917 147.775C-7.15286 157.941 -2.311 182.353 19.4572 186.759L92.1668 201.484L86.7979 279.97C86.2886 287.41 96.6237 291.659 103.224 286.84L148.194 254.019L186.191 292.329C199.762 306.01 225.921 300.455 230.35 283.05L299.759 10.2143C301.646 2.87481 292.062 -2.63908 284.71 1.32306ZM98.9617 185.535L24.0859 170.37C19.4027 169.423 18.3699 164.195 22.4419 162.009L239.901 45.3168C238.306 46.9047 102.668 181.847 98.9617 185.535ZM108.022 261.096L111.066 216.588L135.393 241.119L108.022 261.096ZM210.9 279.502C209.947 283.253 204.342 284.426 201.428 281.492L115.611 194.968L271.981 39.3987L210.9 279.502Z" fill="#5E0ECB"/>
</g>
<defs>
<clipPath id="clip0_1_20">
<rect width="300" height="300" fill="white"/>
</clipPath>
</defs>
</svg>
