<svg width="64" height="64" viewBox="0 0 64 64" fill="none" xmlns="http://www.w3.org/2000/svg">
<path d="M39 0H25C23.896 0 23 0.896 23 2V8H10C8.896 8 8 8.896 8 10C8 11.104 8.896 12 10 12H12V62C12 63.104 12.896 64 14 64H50C51.104 64 52 63.104 52 62V12H54C55.104 12 56 11.104 56 10C56 8.896 55.104 8 54 8H41V2C41 0.896 40.104 0 39 0ZM48 12V60H16V12H48ZM27 8V4H37V8H27Z" fill="white"/>
<path d="M26 56C27.104 56 28 55.104 28 54V20C28 18.896 27.104 18 26 18C24.896 18 24 18.896 24 20V54C24 55.104 24.896 56 26 56Z" fill="white"/>
<path d="M38 56C39.104 56 40 55.104 40 54V20C40 18.896 39.104 18 38 18C36.896 18 36 18.896 36 20V54C36 55.104 36.896 56 38 56Z" fill="white"/>
</svg>
