<svg width="64" height="64" viewBox="0 0 64 64" fill="none" xmlns="http://www.w3.org/2000/svg">
<path d="M29.9421 49.5713C30.0102 49.6394 30.0816 49.7038 30.1561 49.7648C30.1888 49.7916 30.2234 49.8149 30.2569 49.8401C30.2992 49.8719 30.3407 49.9047 30.3847 49.934C30.4258 49.9615 30.4685 49.9854 30.5106 50.0106C30.5498 50.034 30.5882 50.0587 30.6285 50.0802C30.6717 50.1035 30.7163 50.1231 30.7606 50.1438C30.8023 50.1636 30.8434 50.1845 30.8862 50.2022C30.9295 50.22 30.9735 50.2346 31.0173 50.2501C31.0631 50.2666 31.1081 50.284 31.1548 50.2982C31.1987 50.3114 31.2433 50.3213 31.2875 50.3323C31.3352 50.3443 31.3823 50.3577 31.4308 50.3674C31.4818 50.3775 31.5334 50.3835 31.5848 50.3909C31.6273 50.3969 31.6692 50.405 31.7124 50.4093C31.8078 50.4186 31.9036 50.4239 31.9994 50.4239C32.0953 50.4239 32.1911 50.4188 32.2863 50.4093C32.3301 50.405 32.3724 50.3969 32.4156 50.3907C32.4665 50.3835 32.5173 50.3775 32.5677 50.3674C32.6171 50.3577 32.6654 50.344 32.7139 50.3317C32.7572 50.3207 32.8008 50.3114 32.8437 50.2984C32.8914 50.2838 32.9373 50.266 32.9841 50.2493C33.0269 50.2338 33.0702 50.2198 33.1125 50.2024C33.1561 50.1843 33.1978 50.1632 33.2403 50.143C33.2839 50.1225 33.3279 50.1031 33.3706 50.0802C33.4113 50.0585 33.4497 50.0338 33.4891 50.0102C33.5312 49.985 33.5739 49.9613 33.6148 49.9338C33.6578 49.9051 33.6984 49.8729 33.7397 49.842C33.7744 49.816 33.8099 49.792 33.8436 49.7645C33.9144 49.7063 33.9821 49.6448 34.0471 49.5804C34.0502 49.5773 34.0537 49.575 34.0566 49.5719L47.6327 35.9965C48.7688 34.8604 48.7688 33.0186 47.6327 31.8825C46.4968 30.7466 44.6548 30.7464 43.5187 31.8823L34.9085 40.4918V4.84848C34.9085 3.24189 33.606 1.93939 31.9994 1.93939C30.3929 1.93939 29.0904 3.24189 29.0904 4.84848V40.4916L20.481 31.8825C19.3451 30.7464 17.5031 30.7464 16.367 31.8825C15.2309 33.0186 15.2309 34.8604 16.367 35.9965L29.9421 49.5713Z" fill="white"/>
<path d="M61.0909 31.0303C59.4843 31.0303 58.1818 32.3328 58.1818 33.9394V56.2424H5.81818V33.9394C5.81818 32.3328 4.51568 31.0303 2.90909 31.0303C1.3025 31.0303 0 32.3328 0 33.9394V59.1515C0 60.7581 1.3025 62.0606 2.90909 62.0606H61.0909C62.6975 62.0606 64 60.7581 64 59.1515V33.9394C64 32.3328 62.6975 31.0303 61.0909 31.0303Z" fill="white"/>
</svg>
