<svg width="195" height="195" viewBox="0 0 195 195" fill="none" xmlns="http://www.w3.org/2000/svg">
<g clip-path="url(#clip0_1_38)">
<path d="M192.238 34.545L159.894 2.197C158.487 0.79 156.579 0 154.59 0C152.601 0 150.693 0.79 149.287 2.196L116.937 34.546C116.933 34.55 116.929 34.556 116.924 34.56L54.876 96.608C53.525 97.96 52.741 99.774 52.683 101.684L51.668 135.045C51.605 137.112 52.399 139.113 53.861 140.576C55.27 141.984 57.178 142.772 59.164 142.772C59.24 142.772 59.317 142.771 59.393 142.768L92.753 141.75C94.662 141.692 96.477 140.908 97.828 139.558L192.238 45.15C195.167 42.223 195.167 37.474 192.238 34.545ZM154.587 61.587L132.847 39.85L154.59 18.107L176.328 39.848L154.587 61.587ZM89.324 126.85L66.903 127.535L67.585 105.113L122.24 50.457L143.981 72.195L89.324 126.85Z" fill="white"/>
<path d="M132.189 117.092C128.047 117.092 124.689 120.449 124.689 124.592V179.436H15.001V69.748H69.845C73.987 69.748 77.345 66.391 77.345 62.248C77.345 58.105 73.987 54.748 69.845 54.748H7.50101C3.35901 54.748 0.00100708 58.105 0.00100708 62.248V186.935C0.00100708 191.078 3.35901 194.435 7.50101 194.435H132.188C136.33 194.435 139.688 191.078 139.688 186.935V124.591C139.689 120.449 136.331 117.092 132.189 117.092Z" fill="white"/>
</g>
<defs>
<clipPath id="clip0_1_38">
<rect width="194.436" height="194.436" fill="white"/>
</clipPath>
</defs>
</svg>
