<svg width="262" height="262" viewBox="0 0 262 262" fill="none" xmlns="http://www.w3.org/2000/svg">
<path d="M258.878 133.451C258.878 122.717 258.007 114.884 256.122 106.761H133.55V155.209H205.497C204.047 167.249 196.214 185.381 178.807 197.565L178.563 199.187L217.318 229.21L220.003 229.478C244.662 206.704 258.878 173.196 258.878 133.451Z" fill="#4285F4"/>
<path d="M133.55 261.1C168.798 261.1 198.389 249.495 220.003 229.478L178.807 197.565C167.783 205.253 152.987 210.62 133.55 210.62C99.027 210.62 69.726 187.847 59.281 156.37L57.75 156.5L17.452 187.687L16.925 189.152C38.393 231.798 82.49 261.1 133.55 261.1Z" fill="#34A853"/>
<path d="M59.281 156.37C56.525 148.247 54.93 139.543 54.93 130.55C54.93 121.556 56.525 112.853 59.136 104.73L59.063 103L18.26 71.312L16.925 71.947C8.077 89.644 3 109.517 3 130.55C3 151.583 8.077 171.455 16.925 189.152L59.281 156.37Z" fill="#FBBC05"/>
<path d="M133.55 50.479C158.064 50.479 174.6 61.068 184.029 69.917L220.873 33.943C198.245 12.91 168.798 0 133.55 0C82.49 0 38.393 29.301 16.925 71.947L59.136 104.73C69.726 73.253 99.027 50.479 133.55 50.479Z" fill="#EB4335"/>
</svg>
