<svg id="Layer_1" data-name="Layer 1" xmlns="http://www.w3.org/2000/svg" viewBox="0 0 500 500"><defs><style>.cls-1{fill:#ffd55e;}</style></defs><path class="cls-1" d="M240.7,252.37c9.64,2.23,19.4-2.39,22.64-12,2.6-7.69,1.81-18.08-3-24.78-8.91-12.48-29-14.44-42.34-9-16,6.47-23.22,24.09-23.64,40.4-.22,8.58,1.47,17.1,5.94,24.51a47.53,47.53,0,0,0,18.07,16.83c15,8.18,34.83,10.55,51.06,4.69s27.92-19.52,34.1-35.35C310,241.26,311,221.53,304.61,205c-6.27-16.18-19.12-28.88-34.58-36.46a89.86,89.86,0,0,0-52.62-8.06,74.5,74.5,0,0,0-44.31,24.67C149.8,211.59,143,252.74,157.4,285c14.52,32.5,48.68,51.95,83.23,55,17.86,1.59,36-1.08,52.22-8.76a100.87,100.87,0,0,0,38.48-32.68c20.66-28.81,27.61-68.25,17.3-102.26-10.2-33.63-37-59.41-69.3-72.14-33-13-71.75-12.67-103.62,3.55C144.66,143.6,122.21,173,112,206c-10.58,34.13-8.49,72.3,8.24,104.11,16.13,30.67,44.47,53.52,76.77,65.38,33.56,12.33,72.09,13.07,105.53,0,32.19-12.58,58.58-37.09,75-67.33a166.85,166.85,0,0,0,18.28-103.73c-5.19-34.65-23-66.53-49-89.9s-59.21-38-93.85-42.48c-35.69-4.63-72.46,1.71-103.84,19.57-30,17.11-54.08,43.82-69.16,74.82A189,189,0,0,0,62.31,270.58,173.56,173.56,0,0,0,104.63,365c22.92,26,53.28,45,86.27,55.29,34.33,10.74,71.89,12.22,106.8,3.33A185.59,185.59,0,0,0,386,371.4a205.26,205.26,0,0,0,49.42-90c9-35,9.09-72.58-.78-107.39a197,197,0,0,0-53.15-87.88,216,216,0,0,0-89-51.12,220.64,220.64,0,0,0-107.44-4.14,206.35,206.35,0,0,0-92,46.49A223.93,223.93,0,0,0,33.9,161,233.27,233.27,0,0,0,17.27,266.28,216.82,216.82,0,0,0,50,366a228.39,228.39,0,0,0,72.72,71.63,243,243,0,0,0,98.88,34.46A240.54,240.54,0,0,0,328.38,461,236,236,0,0,0,486.63,219.49c-.25-3.19-5.25-3.21-5,0A231.38,231.38,0,0,1,328.24,455.71a237.86,237.86,0,0,1-198.5-19.66,224.13,224.13,0,0,1-71.89-67.17,211.23,211.23,0,0,1-34.79-94.12A229.63,229.63,0,0,1,34.94,172.17,220,220,0,0,1,88,89a202.41,202.41,0,0,1,85.59-50c33.37-9.52,69.2-10.19,103.06-2.81a212.81,212.81,0,0,1,89.78,43.22c25.57,21.08,46,48.42,57.93,79.4,12.49,32.34,15.73,68,10.31,102.15a203.53,203.53,0,0,1-39.43,92.19c-20.16,26.12-47.16,47-77.95,59.05-32.48,12.69-68.5,15.39-102.7,8.94-32.89-6.2-64.21-20.86-89.51-42.86S81.1,327.54,72.2,295.35c-9.26-33.47-7.89-69.73,2.7-102.72C85.05,161,104,132.24,129.67,111.11A157.4,157.4,0,0,1,223.4,75.72a172.68,172.68,0,0,1,97.49,25.5c28.23,17.55,51,43.9,62.6,75.18,12.05,32.41,12,68.78,1.55,101.6-10,31.59-30.1,60.19-57.67,78.85-28.65,19.39-63.76,26.52-97.88,21.66-33.11-4.71-64.64-20.37-87.11-45.34-23.18-25.75-33.91-59.66-31.52-94.07,2.32-33.44,16.83-66.16,41.59-89A113,113,0,0,1,195,125.26a122.47,122.47,0,0,1,51.87-4.2c33,4.17,64.82,21.47,83.7,49.18,19.58,28.74,22.31,65.86,10.81,98.29-11.17,31.51-36.65,57.52-69.84,64.83-33,7.29-70.67-3.09-94.2-27.65a80.11,80.11,0,0,1-21.61-44.18,95.48,95.48,0,0,1,7-50.87c6.61-15.06,17.32-28.41,31.59-36.8,14.91-8.76,32.68-11.08,49.63-8.37,16.63,2.66,32.74,10.11,44.28,22.58,11.83,12.8,16.58,29.55,15.31,46.75-1.21,16.46-7.9,33.13-20.37,44.27-12.8,11.43-30.39,14.13-46.82,10.57-15.53-3.36-30.71-13-35.44-28.94-4.35-14.64-.8-34.15,10.88-44.57,5.61-5,12.91-7.06,20.3-7.21,6.85-.15,14.18,1.18,19.84,5.25,6.33,4.56,8.07,12,7.58,19.46-.25,3.84-1.4,7.81-4.21,10.57A14.23,14.23,0,0,1,242,247.55c-3.13-.72-4.47,4.1-1.33,4.82Z"/></svg>