<svg width="48" height="48" viewBox="0 0 48 48" fill="none" xmlns="http://www.w3.org/2000/svg">
<g clip-path="url(#clip0_0_3)">
<path d="M24 0C10.745 0 0 10.745 0 24C0 37.255 10.745 48 24 48C37.255 48 48 37.255 48 24C48 10.745 37.255 0 24 0ZM24 44C12.954 44 4 35.046 4 24C4 12.954 12.954 4 24 4C35.046 4 44 12.954 44 24C44 35.046 35.046 44 24 44Z" fill="white"/>
<path d="M35 22H26V13.002H22V22H13V26H22V34.998H26V26H35V22Z" fill="white"/>
</g>
<defs>
<clipPath id="clip0_0_3">
<rect width="48" height="48" fill="white"/>
</clipPath>
</defs>
</svg>
