<svg width="32" height="32" viewBox="0 0 32 32" fill="none" xmlns="http://www.w3.org/2000/svg">
<path d="M6.76934 12.6093C6.76934 11.572 6.95067 10.592 7.30801 9.67733C7.64941 8.78893 8.15665 7.97356 8.80267 7.27466C9.44739 6.58494 10.1852 5.98853 10.9947 5.50266C11.8252 5.0002 12.7244 4.62112 13.664 4.37733C14.615 4.12762 15.5942 4.00169 16.5773 4.00266C18.096 4.00266 19.5093 4.32399 20.82 4.96399C22.1136 5.59232 23.2146 6.55659 24.008 7.75599C24.8267 8.97599 25.2333 10.356 25.2333 11.8947C25.2333 12.8173 25.1427 13.72 24.9573 14.6027C24.7754 15.4848 24.4861 16.3414 24.096 17.1533C23.7242 17.9393 23.238 18.6658 22.6533 19.3093C22.0657 19.9426 21.3541 20.4482 20.5627 20.7947C19.7035 21.1712 18.774 21.3607 17.836 21.3507C17.184 21.3507 16.5333 21.1973 15.8907 20.8893C15.248 20.5827 14.7867 20.1613 14.5093 19.6213C14.412 19.996 14.2787 20.5373 14.1013 21.2453C13.9307 21.952 13.816 22.408 13.7653 22.6147C13.712 22.82 13.6133 23.1627 13.4693 23.6373C13.3717 23.9885 13.2464 24.3313 13.0947 24.6627L12.636 25.5613C12.4377 25.947 12.2159 26.3201 11.972 26.6787C11.7307 27.028 11.432 27.4453 11.076 27.9253L10.8773 27.996L10.7453 27.852C10.6027 26.3413 10.5293 25.4373 10.5293 25.1387C10.5293 24.2547 10.6347 23.2627 10.8427 22.1613C11.0467 21.0613 11.3693 19.6787 11.8027 18.016C12.236 16.3547 12.484 15.3773 12.5507 15.088C12.2453 14.4653 12.0907 13.652 12.0907 12.652C12.0907 11.8533 12.34 11.1053 12.84 10.4013C13.3413 9.69999 13.9747 9.34933 14.7427 9.34933C15.3307 9.34933 15.7867 9.54399 16.1133 9.93466C16.4413 10.324 16.6013 10.8147 16.6013 11.4133C16.6013 12.048 16.3907 12.9667 15.9667 14.168C15.5427 15.3707 15.332 16.268 15.332 16.864C15.332 17.468 15.548 17.9733 15.98 18.3693C16.4063 18.7655 16.9701 18.9802 17.552 18.968C18.08 18.968 18.5693 18.848 19.024 18.6067C19.4716 18.3724 19.859 18.0379 20.156 17.6293C20.803 16.7417 21.2642 15.7327 21.512 14.6627C21.64 14.1 21.7387 13.5653 21.8 13.0627C21.8653 12.5573 21.8933 12.08 21.8933 11.6267C21.8933 9.96399 21.3653 8.66799 20.316 7.73999C19.2613 6.81199 17.888 6.35066 16.1987 6.35066C14.2773 6.35066 12.6707 6.97199 11.384 8.21866C10.096 9.46133 9.44801 11.0413 9.44801 12.9573C9.44801 13.38 9.51201 13.788 9.63334 14.1827C9.75201 14.576 9.88134 14.8893 10.0213 15.1213C10.16 15.3493 10.2907 15.572 10.4093 15.7773C10.5293 15.9827 10.592 16.1293 10.592 16.2173C10.592 16.4867 10.5213 16.8373 10.3787 17.2707C10.2307 17.704 10.056 17.92 9.84534 17.92C9.82534 17.92 9.74267 17.9053 9.59867 17.8747C9.09996 17.7258 8.64958 17.4474 8.29334 17.068C7.91526 16.6747 7.61688 16.212 7.41467 15.7053C7.21304 15.2005 7.056 14.6789 6.94534 14.1467C6.82578 13.643 6.7667 13.1269 6.76934 12.6093V12.6093Z" fill="white"/>
</svg>
