<svg width="32" height="32" viewBox="0 0 32 32" fill="none" xmlns="http://www.w3.org/2000/svg">
<g clip-path="url(#clip0_1_6)">
<path d="M31.2745 5.92392C30.7718 6.14688 30.255 6.33507 29.7269 6.48784C30.3521 5.78074 30.8288 4.94874 31.1198 4.03829C31.185 3.83421 31.1174 3.61083 30.9497 3.47736C30.7822 3.34379 30.5494 3.32779 30.3649 3.4371C29.2434 4.10229 28.0334 4.58033 26.7646 4.85987C25.4866 3.61104 23.7507 2.90033 21.9563 2.90033C18.1684 2.90033 15.0867 5.98193 15.0867 9.7697C15.0867 10.068 15.1056 10.3647 15.143 10.6572C10.4426 10.2445 6.07277 7.93424 3.072 4.25331C2.96506 4.12211 2.80032 4.0514 2.63164 4.06492C2.46287 4.07814 2.31123 4.17331 2.22597 4.31958C1.61735 5.36392 1.2956 6.55834 1.2956 7.77362C1.2956 9.42885 1.88656 10.9993 2.93048 12.2265C2.61306 12.1165 2.30504 11.9791 2.01105 11.8159C1.85322 11.7281 1.6606 11.7294 1.5038 11.8193C1.3469 11.9093 1.24853 12.0746 1.2444 12.2554C1.24368 12.2858 1.24368 12.3163 1.24368 12.3471C1.24368 14.8179 2.57343 17.0423 4.60645 18.2547C4.43179 18.2372 4.25724 18.2119 4.08382 18.1788C3.90503 18.1446 3.72119 18.2073 3.60062 18.3436C3.47985 18.4799 3.4399 18.6698 3.49554 18.8432C4.24805 21.1927 6.18549 22.9208 8.52768 23.4476C6.58508 24.6644 4.36356 25.3017 2.03149 25.3017C1.54489 25.3017 1.0555 25.2731 0.576529 25.2164C0.338594 25.1881 0.111085 25.3286 0.0300533 25.5549C-0.0509787 25.7813 0.0349049 26.0336 0.23733 26.1634C3.23324 28.0843 6.69739 29.0997 10.2551 29.0997C17.249 29.0997 21.6242 25.8016 24.0629 23.0348C27.1039 19.5849 28.848 15.0185 28.848 10.5066C28.848 10.3181 28.8451 10.1278 28.8394 9.93806C30.0391 9.03411 31.0721 7.94012 31.9127 6.68273C32.0404 6.49176 32.0265 6.23938 31.8786 6.06358C31.7309 5.88768 31.4847 5.83081 31.2745 5.92392Z" fill="white"/>
</g>
<defs>
<clipPath id="clip0_1_6">
<rect width="32" height="32" fill="white"/>
</clipPath>
</defs>
</svg>
