<svg width="32" height="32" viewBox="0 0 32 32" fill="none" xmlns="http://www.w3.org/2000/svg">
<path d="M15.9867 18.5333V13.5733H28.4667C28.6533 14.4133 28.8 15.2 28.8 16.3067C28.8 23.92 23.6933 29.3333 16 29.3333C8.63999 29.3333 2.66666 23.36 2.66666 16C2.66666 8.64 8.63999 2.66667 16 2.66667C19.6 2.66667 22.6133 3.98667 24.92 6.14667L21.1333 9.82667C20.1733 8.92 18.4933 7.85334 16 7.85334C11.5867 7.85334 7.98666 11.52 7.98666 16.0133C7.98666 20.5067 11.5867 24.1733 16 24.1733C21.1067 24.1733 22.9867 20.64 23.3333 18.5467H15.9867V18.5333Z" fill="white"/>
</svg>
