<svg width="490" height="490" viewBox="0 0 490 490" fill="none" xmlns="http://www.w3.org/2000/svg">
<g clip-path="url(#clip0_1_2)">
<path d="M486.617 255.067C491.217 248.767 491.017 240.167 486.117 234.067C412.017 142.967 332.017 96.767 248.217 96.767C106.117 96.767 7.417 229.167 3.317 234.767C-1.283 241.067 -1.083 249.667 3.817 255.767C77.817 346.967 157.817 393.167 241.617 393.167C383.717 393.167 482.417 260.767 486.617 255.067ZM241.617 358.867C171.817 358.867 103.817 320.467 39.217 244.867C64.517 214.967 144.917 131.067 248.217 131.067C318.017 131.067 386.017 169.467 450.617 245.067C425.317 274.967 344.917 358.867 241.617 358.867Z" fill="white"/>
<path d="M244.917 157.867C196.917 157.867 157.817 196.967 157.817 244.967C157.817 292.967 196.917 332.067 244.917 332.067C292.917 332.067 332.017 292.967 332.017 244.967C332.017 196.967 292.917 157.867 244.917 157.867ZM244.917 297.767C215.817 297.767 192.117 274.067 192.117 244.967C192.117 215.867 215.817 192.167 244.917 192.167C274.017 192.167 297.717 215.867 297.717 244.967C297.717 274.067 274.017 297.767 244.917 297.767Z" fill="white"/>
</g>
<defs>
<clipPath id="clip0_1_2">
<rect width="489.935" height="489.935" fill="white"/>
</clipPath>
</defs>
</svg>
