<svg width="250" height="250" viewBox="0 0 250 250" fill="none" xmlns="http://www.w3.org/2000/svg">
<path d="M189.655 79.2845V170.41C189.655 182.142 180.142 191.655 168.409 191.655L94.8276 191.961L51.7241 239.375V191.961H21.2457C9.51293 191.961 0 182.448 0 170.716V79.5905C0 67.8578 9.51293 58.3449 21.2457 58.3449L168.405 58.0388C180.142 58.0388 189.655 67.5517 189.655 79.2845Z" fill="white" fill-opacity="0.8"/>
<path d="M94.8276 105.453H38.7931C36.4095 105.453 34.4828 103.522 34.4828 101.142C34.4828 98.7629 36.4095 96.8319 38.7931 96.8319H94.8276C97.2112 96.8319 99.1379 98.7629 99.1379 101.142C99.1379 103.522 97.2112 105.453 94.8276 105.453Z" fill="white" fill-opacity="0.4"/>
<path d="M150.862 131.315H38.7931C36.4095 131.315 34.4828 129.384 34.4828 127.004C34.4828 124.625 36.4095 122.694 38.7931 122.694H150.862C153.246 122.694 155.172 124.625 155.172 127.004C155.172 129.384 153.246 131.315 150.862 131.315Z" fill="white" fill-opacity="0.4"/>
<path d="M150.862 157.177H38.7931C36.4095 157.177 34.4828 155.246 34.4828 152.866C34.4828 150.487 36.4095 148.556 38.7931 148.556H150.862C153.246 148.556 155.172 150.487 155.172 152.866C155.172 155.246 153.246 157.177 150.862 157.177Z" fill="white" fill-opacity="0.4"/>
<path d="M228.754 10.9267L81.5948 10.625C69.8578 10.625 60.3448 20.1379 60.3448 31.8707V58.2586L168.409 58.0345C180.142 58.0345 189.655 67.5474 189.655 79.2845V158.772L219.828 191.961V144.547H228.754C240.487 144.547 250 135.034 250 123.302V32.1767C250 20.4397 240.487 10.9267 228.754 10.9267Z" fill="white" fill-opacity="0.6"/>
</svg>
